{"title":"Mississippi Grind (2015) CAM x264 AC3 TiTAN.mkv","uid":12380820,"size":793852767,"categoryP":"video","categoryS":"movies","magnet":"?xt=urn:btih:c6d8fb5e024ffb400f7d4dfc3aef533ceb5b7c66&amp;dn=Mississippi+Grind+%282015%29+CAM+x264+AC3+TiTAN.mkv&amp;tr=udp%3A%2F%2Ftracker.openbittorrent.com%3A80&amp;tr=udp%3A%2F%2Fopen.demonii.com%3A1337&amp;tr=udp%3A%2F%2Ftracker.coppersurfer.tk%3A6969&amp;tr=udp%3A%2F%2Fexodus.desync.com%3A6969","seeders":1,"leechers":0,"uploader":null,"files":1,"time":1441760162,"description":"Mississippi Grind (2015) CAM x264 AC3 TiTAN.mkv\n\n\nGeneral\n\nFormat : Matroska\nFormat version : Version 2\nOverall bit rate : 1 729 Kbps\nEncoded date : UTC 2015-04-25 02:38:23\n\nVideo\nID : 1\nFormat : AVC\nFormat/Info : Advanced Video Codec\nFormat profile : &lt;a class=&quot;__cf_email__&quot; href=&quot;/cdn-cgi/l/email-protection&quot; data-cfemail=&quot;1459757d7a5458203a25&quot;&gt;[email&amp;#160;protected]&lt;/a&gt;&lt;script data-cfhash='f9e31' type=&quot;text/javascript&quot;&gt;\n/* &lt;![CDATA[ */!function(){try{var t=&quot;currentScript&quot;in document?document.currentScript:function(){for(var t=document.getElementsByTagName(&quot;script&quot;),e=t.length;e--;)if(t[e].getAttribute(&quot;data-cfhash&quot;))return t[e]}();if(t&amp;&amp;t.previousSibling){var e,r,n,i,c=t.previousSibling,a=c.getAttribute(&quot;data-cfemail&quot;);if(a){for(e=&quot;&quot;,r=parseInt(a.substr(0,2),16),n=2;a.length-n;n+=2)i=parseInt(a.substr(n,2),16)^r,e+=String.fromCharCode(i);e=document.createTextNode(e),c.parentNode.replaceChild(e,c)}t.parentNode.removeChild(t);}}catch(u){}}()/* ]]&gt; */&lt;/script&gt;\nFormat settings, CABAC : Yes\nFormat settings, ReFrames : 5 frames\nCodec ID : V_MPEG4/ISO/AVC\nDuration : 2h 12mn\nBit rate : 1 600 Kbps\nWidth : 720 pixels\nHeight : 304 pixels\nDisplay aspect ratio : 2.35:1\nFrame rate mode : Constant\nFrame rate : 29.970 fps\nColor space : YUV\nChroma subsampling : 4:2:0\nBit depth : 8 bits\nScan type : Progressive\nBits/(Pixel*Frame) : 0.244\nStream size : 1.45 GiB (91%)\nLanguage : English\nDefault : Yes\nForced : No\nColor primaries : BT.601 NTSC\nTransfer characteristics : BT.709\nMatrix coefficients : BT.601\n\nAudio\nID : 2\nFormat : AC-3\nFormat/Info : Audio Coding 3\nMode extension : CM (complete main)\nFormat settings, Endianness : Big\nCodec ID : A_AC3\nDuration : 2h 12mn\nBit rate mode : Constant\nBit rate : 128 Kbps\nChannel(s) : 2 channels\nChannel positions : Front: L R\nSampling rate : 44.1 KHz\nBit depth : 16 bits\nCompression mode : Lossy\nDelay relative to video : 20ms\nStream size : 121 MiB (7%)\nDefault : Yes\nForced : No","torrent":{"xt":"urn:btih:c6d8fb5e024ffb400f7d4dfc3aef533ceb5b7c66","amp;dn":"Mississippi+Grind+%282015%29+CAM+x264+AC3+TiTAN.mkv","amp;tr":["udp%3A%2F%2Ftracker.openbittorrent.com%3A80","udp%3A%2F%2Fopen.demonii.com%3A1337","udp%3A%2F%2Ftracker.coppersurfer.tk%3A6969","udp%3A%2F%2Fexodus.desync.com%3A6969"],"infoHash":"c6d8fb5e024ffb400f7d4dfc3aef533ceb5b7c66","infoHashBuffer":{"type":"Buffer","data":[198,216,251,94,2,79,251,64,15,125,77,252,58,239,83,60,235,91,124,102]},"announce":[],"urlList":[]}}